<?xml version="1.0" standalone="no"?>
<!DOCTYPE svg PUBLIC "-//W3C//DTD SVG 1.1//EN" "http://www.w3.org/Graphics/SVG/1.1/DTD/svg11.dtd">
<svg width="18" height="524" viewBox="32 -262 18 524" xmlns="http://www.w3.org/2000/svg" version="1.1">
<title>OpenSCAD Model</title>
<path d="
M 41.7972,-234.298 L 42.8618,-234.48 L 43.8952,-234.794 L 44.8812,-235.234 L 45.8041,-235.795 L 46.6495,-236.467
 L 47.404,-237.24 L 48.0556,-238.101 L 48.5942,-239.038 L 49.0112,-240.034 L 49.3001,-241.074 L 49.4562,-242.143
 L 49.4772,-243.223 L 49.3627,-244.297 L 49.1144,-245.348 L 48.7365,-246.36 L 48.2346,-247.316 L 47.6169,-248.202
 L 46.893,-249.003 L 46.0744,-249.708 L 45.2402,-250.26 L 48.0163,-257.971 L 49.0022,-260.54 L 46.0072,-261.666
 L 45.0171,-259.087 L 42.2275,-251.338 L 42.1287,-251.359 L 41.0523,-251.448 L 39.9734,-251.401 L 38.9087,-251.219
 L 37.8753,-250.906 L 36.8894,-250.465 L 35.9664,-249.904 L 35.1211,-249.232 L 34.3666,-248.459 L 33.7149,-247.598
 L 33.1764,-246.662 L 32.7594,-245.666 L 32.4705,-244.625 L 32.3144,-243.556 L 32.2934,-242.477 L 32.4079,-241.403
 L 32.6561,-240.352 L 33.0341,-239.34 L 33.5359,-238.383 L 34.1536,-237.498 L 34.8775,-236.696 L 35.6961,-235.992
 L 36.5966,-235.395 L 37.5647,-234.917 L 38.5852,-234.563 L 39.6419,-234.34 L 40.7182,-234.251 z
M 49.0022,260.54 L 48.0163,257.971 L 45.2402,250.26 L 46.0744,249.708 L 46.893,249.003 L 47.6169,248.202
 L 48.2346,247.316 L 48.7365,246.36 L 49.1144,245.348 L 49.3627,244.297 L 49.4772,243.223 L 49.4562,242.143
 L 49.3001,241.074 L 49.0112,240.034 L 48.5942,239.038 L 48.0556,238.101 L 47.404,237.24 L 46.6495,236.467
 L 45.8041,235.795 L 44.8812,235.234 L 43.8952,234.794 L 42.8618,234.48 L 41.7972,234.298 L 40.7182,234.251
 L 39.6419,234.34 L 38.5852,234.563 L 37.5647,234.917 L 36.5966,235.395 L 35.6961,235.992 L 34.8775,236.696
 L 34.1536,237.498 L 33.5359,238.383 L 33.0341,239.34 L 32.6561,240.352 L 32.4079,241.403 L 32.2934,242.477
 L 32.3144,243.556 L 32.4705,244.625 L 32.7594,245.666 L 33.1764,246.662 L 33.7149,247.598 L 34.3666,248.459
 L 35.1211,249.232 L 35.9664,249.904 L 36.8894,250.465 L 37.8753,250.906 L 38.9087,251.219 L 39.9734,251.401
 L 41.0523,251.448 L 42.1287,251.359 L 42.2275,251.338 L 45.0171,259.087 L 46.0072,261.666 z
" stroke="black" fill="lightgray" stroke-width="0.5"/></svg>
